<svg viewBox="0 0 28 28" xmlns="http://www.w3.org/2000/svg">
    <path d="M12.172 5.995c0 3.32-2.725 6.012-6.087 6.012C2.725 12.007 0 9.317 0 5.995 0 2.675 2.724-.017 6.085-.017c3.362 0 6.087 2.692 6.087 6.012m15.23 13.74c0 4.04-3.316 7.316-7.405 7.316-4.09 0-7.405-3.27-7.405-7.31s3.316-7.31 7.405-7.31c4.09 0 7.405 3.275 7.405 7.315M24.762 6c0 2.6-2.134 4.708-4.765 4.708-2.632 0-4.766-2.108-4.766-4.708S17.37 1.29 20 1.29c2.63 0 4.77 2.11 4.77 4.71M9.53 19.735c0 1.88-1.54 3.404-3.445 3.404-1.902 0-3.446-1.53-3.446-3.41s1.54-3.405 3.44-3.405 3.44 1.525 3.44 3.405" fill="#9B9B9B" fill-rule="evenodd"/>
</svg>
